# xmcd
#
# Track frame offsets:
#	150
#	7756
#	14347
#	32146
#	38887
#	45567
#	52510
#	57418
#	62221
#	75799
#	83153
#	90394
#	95346
#	103011
#	114488
#	120170
#	124856
#	130951
#	138073
#	147321
#
# Disc length: 2060 seconds
#
# Revision: 0
# Processed by: cddbd v1.4PL0 Copyright (c) Steve Scherf et al.
# Submitted via: dBpowerAMP V4.0
#
DISCID=ee080a14
DTITLE=Jerry Clower - Runaway Truck
DYEAR=1900
DGENRE=Comedy
TTITLE0=The Trucker and the Lady
TTITLE1=Marcel, the Truck Driver
TTITLE2=Feudin' Stars
TTITLE3=The Pulpit Commitee
TTITLE4=Peanuts
TTITLE5=John Dunn
TTITLE6=The Preacher's Water
TTITLE7=Two Mean Brothers
TTITLE8=The Grassers
TTITLE9=How to Tell Time
TTITLE10=Runaway Truck
TTITLE11=The Baptizing
TTITLE12=Negativism
TTITLE13=Procto
TTITLE14=Sonny and Rambo
TTITLE15=Temperance Meeting
TTITLE16=A Positive Attitude
TTITLE17=Clowerisims
TTITLE18=Coon Huntin' on TV
TTITLE19=Shake It Off
EXTD=
EXTT0=
EXTT1=
EXTT2=
EXTT3=
EXTT4=
EXTT5=
EXTT6=
EXTT7=
EXTT8=
EXTT9=
EXTT10=
EXTT11=
EXTT12=
EXTT13=
EXTT14=
EXTT15=
EXTT16=
EXTT17=
EXTT18=
EXTT19=
PLAYORDER=
